<svg width="395" height="541" viewBox="0 0 395 541" fill="none" xmlns="http://www.w3.org/2000/svg">
<path d="M260 161V400C260 411.046 251.046 420 240 420H157C145.954 420 137 411.046 137 400V161H260Z" fill="#D9D9D9"/>
<path d="M240 77C251.046 77 260 85.9543 260 97V152H137V97C137 85.9543 145.954 77 157 77H240Z" fill="#D9D9D9"/>
<rect x="251" width="68" height="108" transform="rotate(90 251 0)" fill="#D9D9D9"/>
<path d="M176.744 29.1818C176.668 28.5341 176.357 28.0313 175.811 27.6733C175.266 27.3153 174.597 27.1364 173.804 27.1364C173.224 27.1364 172.717 27.2301 172.283 27.4176C171.852 27.6051 171.516 27.8629 171.273 28.1911C171.034 28.5192 170.915 28.892 170.915 29.3097C170.915 29.6591 170.998 29.9595 171.164 30.2109C171.335 30.4581 171.552 30.6648 171.816 30.831C172.08 30.9929 172.357 31.1271 172.647 31.2337C172.937 31.3359 173.203 31.419 173.446 31.483L174.776 31.8409C175.116 31.9304 175.496 32.054 175.913 32.2116C176.335 32.3693 176.738 32.5845 177.121 32.8572C177.509 33.1257 177.829 33.4709 178.08 33.8928C178.332 34.3146 178.457 34.8324 178.457 35.446C178.457 36.1534 178.272 36.7926 177.901 37.3636C177.535 37.9347 176.998 38.3885 176.29 38.7251C175.587 39.0618 174.733 39.2301 173.727 39.2301C172.79 39.2301 171.978 39.0788 171.292 38.7763C170.61 38.4737 170.073 38.0518 169.681 37.5107C169.293 36.9695 169.074 36.3409 169.023 35.625H170.659C170.702 36.1193 170.868 36.5284 171.158 36.8523C171.452 37.1719 171.822 37.4105 172.27 37.5682C172.722 37.7216 173.207 37.7983 173.727 37.7983C174.332 37.7983 174.876 37.7003 175.357 37.5043C175.839 37.304 176.22 37.027 176.501 36.6733C176.783 36.3153 176.923 35.8977 176.923 35.4205C176.923 34.9858 176.802 34.6321 176.559 34.3594C176.316 34.0866 175.996 33.8651 175.6 33.6946C175.204 33.5241 174.776 33.375 174.315 33.2472L172.705 32.7869C171.682 32.4929 170.872 32.0732 170.276 31.5277C169.679 30.9822 169.381 30.2685 169.381 29.3864C169.381 28.6534 169.579 28.0142 169.975 27.4688C170.376 26.919 170.913 26.4929 171.586 26.1903C172.263 25.8835 173.02 25.7301 173.855 25.7301C174.699 25.7301 175.449 25.8814 176.105 26.1839C176.761 26.4822 177.281 26.8913 177.665 27.4112C178.053 27.9311 178.257 28.5213 178.278 29.1818H176.744ZM180.348 27.3153V25.9091H190.166V27.3153H186.05V39H184.464V27.3153H180.348ZM191.62 39H189.958L194.765 25.9091H196.401L201.208 39H199.546L195.634 27.9801H195.532L191.62 39ZM192.234 33.8864H198.933V35.2926L192.234 35.2926V33.8864ZM211.581 30C211.44 29.5696 211.255 29.1839 211.025 28.843C210.799 28.4979 210.528 28.2038 210.213 27.9609C209.902 27.718 209.548 27.5327 209.152 27.4048C208.756 27.277 208.321 27.2131 207.848 27.2131C207.072 27.2131 206.367 27.4134 205.732 27.8139C205.097 28.2145 204.592 28.8047 204.217 29.5845C203.842 30.3643 203.655 31.321 203.655 32.4545C203.655 33.5881 203.844 34.5447 204.224 35.3246C204.603 36.1044 205.116 36.6946 205.764 37.0952C206.412 37.4957 207.141 37.696 207.95 37.696C208.7 37.696 209.361 37.5362 209.932 37.2166C210.507 36.8928 210.955 36.4368 211.274 35.8487C211.598 35.2564 211.76 34.5597 211.76 33.7585L212.246 33.8608H208.308V32.4545H213.294V33.8608C213.294 34.9389 213.064 35.8764 212.604 36.6733C212.148 37.4702 211.517 38.0881 210.712 38.527C209.911 38.9616 208.99 39.179 207.95 39.179C206.791 39.179 205.773 38.9063 204.895 38.3608C204.021 37.8153 203.339 37.0398 202.849 36.0341C202.364 35.0284 202.121 33.8352 202.121 32.4545C202.121 31.419 202.259 30.4879 202.536 29.6612C202.817 28.8303 203.214 28.1229 203.725 27.5391C204.237 26.9553 204.842 26.5078 205.54 26.1967C206.239 25.8857 207.009 25.7301 207.848 25.7301C208.538 25.7301 209.182 25.8345 209.778 26.0433C210.379 26.2479 210.914 26.5398 211.383 26.919C211.856 27.294 212.25 27.7436 212.565 28.2678C212.881 28.7876 213.098 29.3651 213.217 30H211.581ZM216.009 39V25.9091H223.91V27.3153H217.594V31.7386H223.501V33.1449H217.594V37.5938H224.012V39H216.009Z" fill="black"/>
<rect x="115" y="193" width="93" height="115" transform="rotate(90 115 193)" fill="#D9D9D9"/>
<rect x="394" y="193" width="93" height="115" transform="rotate(90 394 193)" fill="#D9D9D9"/>
<rect x="115" y="298" width="61" height="115" transform="rotate(90 115 298)" fill="#D9D9D9"/>
<rect x="115" y="101" width="34" height="115" transform="rotate(90 115 101)" fill="#D9D9D9"/>
<rect x="115" y="147" width="34" height="115" transform="rotate(90 115 147)" fill="#D9D9D9"/>
<rect x="394" y="298" width="61" height="115" transform="rotate(90 394 298)" fill="#D9D9D9"/>
<rect x="394" y="101" width="34" height="115" transform="rotate(90 394 101)" fill="#D9D9D9"/>
<rect x="394" y="147" width="34" height="115" transform="rotate(90 394 147)" fill="#D9D9D9"/>
<path d="M384.5 441L279.5 410L277.552 415.518C274.991 422.775 269.268 428.472 262 431L342.5 502.5L344.827 500.173C361.779 483.221 375.256 463.12 384.5 441Z" fill="#D9D9D9"/>
<path d="M12 441L116.5 409.5L119.68 416.048C123.087 423.061 129.135 428.438 136.5 431L64 503.5L56.9111 497.789C37.8798 482.459 22.5323 463.052 12 441Z" fill="#D9D9D9"/>
<path d="M394 369H279V402L387 431.5L387.683 428.327C391.883 408.831 394 388.944 394 369Z" fill="#D9D9D9"/>
<path d="M0 369H115L116 402.5L7 431.5L6.31668 428.327C2.11743 408.831 0 388.944 0 369Z" fill="#D9D9D9"/>
<path d="M252 435H145.5L71 510L86.6341 516.479C113.075 527.437 140.949 534.552 169.407 537.607C190.41 539.863 211.593 539.892 232.602 537.695L234.089 537.54C262.891 534.528 291.138 527.545 318.026 516.79L335 510L252 435Z" fill="#D9D9D9"/>
<path d="M115 50.0435V89H0.847826V51.3496C0.847826 37.1458 2.13571 22.9712 4.69565 9L88.7065 38.913L86.7826 46.5652L115 50.0435Z" fill="#D9D9D9"/>
<path d="M280 50.0435V89H394.152V51.3496C394.152 37.1458 392.864 22.9712 390.304 9L306.293 38.913L308.217 46.5652L280 50.0435Z" fill="#D9D9D9"/>
</svg>
